<?xml version="1.0" encoding="UTF-8" standalone="no"?>
<!-- Created with Inkscape (http://www.inkscape.org/) -->

<svg
   xmlns:dc="http://purl.org/dc/elements/1.1/"
   xmlns:cc="http://creativecommons.org/ns#"
   xmlns:rdf="http://www.w3.org/1999/02/22-rdf-syntax-ns#"
   xmlns:svg="http://www.w3.org/2000/svg"
   xmlns="http://www.w3.org/2000/svg"
   xmlns:xlink="http://www.w3.org/1999/xlink"
   xmlns:sodipodi="http://sodipodi.sourceforge.net/DTD/sodipodi-0.dtd"
   xmlns:inkscape="http://www.inkscape.org/namespaces/inkscape"
   width="64"
   height="64"
   viewBox="0 0 16.933333 16.933333"
   version="1.1"
   id="svg8"
   inkscape:version="0.92.1 r"
   sodipodi:docname="archmaker.svg">
  <defs
     id="defs2">
    <linearGradient
       id="linearGradient172">
      <stop
         id="stop173"
         offset="0"
         style="stop-color:#3f2600;stop-opacity:0.6;" />
      <stop
         id="stop174"
         offset="1"
         style="stop-color:#3f2600;stop-opacity:0;" />
    </linearGradient>
    <linearGradient
       id="linearGradient167">
      <stop
         id="stop168"
         offset="0"
         style="stop-color:#ffffff;stop-opacity:0.65;" />
      <stop
         id="stop169"
         offset="1"
         style="stop-color:#ffffff;stop-opacity:0;" />
    </linearGradient>
    <linearGradient
       id="linearGradient162">
      <stop
         id="stop163"
         offset="0"
         style="stop-color:#ffa63f;stop-opacity:1;" />
      <stop
         id="stop164"
         offset="1"
         style="stop-color:#ffff00;stop-opacity:1;" />
    </linearGradient>
    <linearGradient
       id="linearGradient153">
      <stop
         id="stop154"
         offset="0"
         style="stop-color:#ffeed7;stop-opacity:1;" />
      <stop
         id="stop155"
         offset="1"
         style="stop-color:#bdbfc2;stop-opacity:1;" />
    </linearGradient>
    <linearGradient
       id="linearGradient138">
      <stop
         id="stop139"
         offset="0"
         style="stop-color:#ffffff;stop-opacity:0.8;" />
      <stop
         id="stop140"
         offset="1"
         style="stop-color:#ffffff;stop-opacity:0;" />
    </linearGradient>
    <linearGradient
       gradientUnits="objectBoundingBox"
       y2="0.90125799"
       x2="0.417539"
       y1="0.020191999"
       x1="0.47424799"
       id="linearGradient141"
       xlink:href="#linearGradient138" />
    <linearGradient
       gradientUnits="objectBoundingBox"
       y2="0.94531101"
       x2="0.553922"
       y1="0.031192999"
       x1="0.55880702"
       id="linearGradient142"
       xlink:href="#linearGradient167" />
    <linearGradient
       gradientUnits="objectBoundingBox"
       y2="0.93366498"
       x2="0.41365999"
       y1="0.028819799"
       x1="0.46557701"
       id="linearGradient143"
       xlink:href="#linearGradient167" />
    <linearGradient
       gradientUnits="objectBoundingBox"
       y2="0.94063401"
       x2="0.64553201"
       y1="0.059404202"
       x1="0.70346397"
       id="linearGradient144"
       xlink:href="#linearGradient167" />
    <linearGradient
       gradientUnits="objectBoundingBox"
       y2="0.75857902"
       x2="0.86741799"
       y1="-0.036155298"
       x1="0.46741399"
       id="linearGradient145"
       xlink:href="#linearGradient167" />
    <linearGradient
       gradientUnits="objectBoundingBox"
       y2="0.71875"
       x2="0.57143003"
       y1="0.023441499"
       x1="0.57152498"
       id="linearGradient146"
       xlink:href="#linearGradient167" />
    <linearGradient
       gradientUnits="objectBoundingBox"
       y2="0.8125"
       x2="0.5"
       y1="0.0234362"
       x1="0.5"
       id="linearGradient147"
       xlink:href="#linearGradient167" />
    <linearGradient
       gradientUnits="objectBoundingBox"
       y2="0.92820501"
       x2="0.51599997"
       y1="0.37435901"
       x1="0.50799799"
       id="linearGradient148"
       xlink:href="#linearGradient167" />
    <linearGradient
       gradientUnits="objectBoundingBox"
       y2="0.94634098"
       x2="0.50400001"
       y1="0.131707"
       x1="0.5"
       id="linearGradient149"
       xlink:href="#linearGradient138" />
    <linearGradient
       gradientTransform="matrix(-0.928523,0.283938,0.435332,0.943857,-1.91327e-7,5.49908e-8)"
       gradientUnits="objectBoundingBox"
       y2="0.94191301"
       x2="0.156323"
       y1="0.099496603"
       x1="-0.30509499"
       id="linearGradient150"
       xlink:href="#linearGradient167" />
    <linearGradient
       gradientUnits="objectBoundingBox"
       y2="1.02569"
       x2="0.487055"
       y1="0.022184599"
       x1="0.433979"
       id="linearGradient151"
       xlink:href="#linearGradient167" />
    <linearGradient
       spreadMethod="reflect"
       gradientUnits="objectBoundingBox"
       y2="0.40625"
       x2="0.5"
       y1="0.89842999"
       x1="0.5"
       id="linearGradient152"
       xlink:href="#linearGradient153" />
    <linearGradient
       gradientUnits="objectBoundingBox"
       y2="0.23093501"
       x2="0.453989"
       y1="0.98882002"
       x1="0.43568701"
       id="linearGradient156"
       xlink:href="#linearGradient153" />
    <linearGradient
       gradientUnits="objectBoundingBox"
       y2="0.41252401"
       x2="0.49482101"
       y1="1.15284"
       x1="0.49180499"
       id="linearGradient157"
       xlink:href="#linearGradient153" />
    <linearGradient
       gradientUnits="objectBoundingBox"
       y2="0.136172"
       x2="0.49843901"
       y1="0.85418499"
       x1="0.51730198"
       id="linearGradient158"
       xlink:href="#linearGradient153" />
    <linearGradient
       gradientUnits="objectBoundingBox"
       y2="0.096282303"
       x2="0.49215299"
       y1="0.87917101"
       x1="0.46201"
       id="linearGradient159"
       xlink:href="#linearGradient153" />
    <linearGradient
       gradientUnits="objectBoundingBox"
       y2="0.98558098"
       x2="0.41209599"
       y1="0.34872901"
       x1="0.50086302"
       id="linearGradient161"
       xlink:href="#linearGradient162" />
    <linearGradient
       gradientUnits="objectBoundingBox"
       y2="0.98367399"
       x2="0.46399999"
       y1="0.51020199"
       x1="0.60399801"
       id="linearGradient165"
       xlink:href="#linearGradient162" />
    <linearGradient
       gradientUnits="objectBoundingBox"
       y2="0.97005898"
       x2="0.50800002"
       y1="0.191616"
       x1="0.50000501"
       id="linearGradient166"
       xlink:href="#linearGradient162" />
    <radialGradient
       gradientUnits="objectBoundingBox"
       r="0.5"
       fy="0.5"
       fx="0.5"
       cy="0.5"
       cx="0.5"
       id="radialGradient171"
       xlink:href="#linearGradient172" />
    <radialGradient
       id="radialGradient176"
       xlink:href="#linearGradient172" />
    <linearGradient
       gradientUnits="objectBoundingBox"
       y2="-0.675295"
       x2="0.19452"
       y1="1.2934099"
       x1="0.94027299"
       id="linearGradient178"
       xlink:href="#linearGradient153" />
    <radialGradient
       gradientUnits="userSpaceOnUse"
       r="195.07191"
       fy="1219.4125"
       fx="446.77762"
       cy="1219.4125"
       cx="446.77762"
       gradientTransform="scale(1.045233,0.956725)"
       id="radialGradient1399"
       xlink:href="#linearGradient172" />
    <linearGradient
       gradientTransform="scale(0.575262,1.738339)"
       y2="304.07886"
       x2="400.84448"
       y1="369.53015"
       x1="400.57785"
       gradientUnits="userSpaceOnUse"
       id="linearGradient1401"
       xlink:href="#linearGradient153" />
    <linearGradient
       gradientTransform="scale(1.116071,0.896001)"
       y2="330.09561"
       x2="297.0856"
       y1="237.93179"
       x1="303.01761"
       gradientUnits="userSpaceOnUse"
       id="linearGradient1403"
       xlink:href="#linearGradient138" />
    <linearGradient
       y2="243.91606"
       x2="380.27319"
       y1="278.60202"
       x1="378.93771"
       gradientTransform="scale(0.816497,1.224744)"
       gradientUnits="userSpaceOnUse"
       id="linearGradient1405"
       xlink:href="#linearGradient153" />
    <linearGradient
       gradientTransform="scale(0.816497,1.224744)"
       y2="245.68338"
       x2="380.5517"
       y1="277.495"
       x1="381.38742"
       gradientUnits="userSpaceOnUse"
       id="linearGradient1407"
       xlink:href="#linearGradient153" />
    <linearGradient
       y2="281.01636"
       x2="376.79556"
       y1="240.92712"
       x1="379.09573"
       gradientTransform="scale(0.816497,1.224744)"
       gradientUnits="userSpaceOnUse"
       id="linearGradient1409"
       xlink:href="#linearGradient167" />
    <linearGradient
       gradientTransform="scale(0.816497,1.224744)"
       y2="281.32513"
       x2="387.06866"
       y1="242.28218"
       x1="389.63535"
       gradientUnits="userSpaceOnUse"
       id="linearGradient1411"
       xlink:href="#linearGradient167" />
    <linearGradient
       gradientTransform="scale(0.812855,1.230232)"
       y2="394.10361"
       x2="437.57941"
       y1="528.87177"
       x1="437.57941"
       spreadMethod="reflect"
       gradientUnits="userSpaceOnUse"
       id="linearGradient1413"
       xlink:href="#linearGradient153" />
    <linearGradient
       gradientTransform="scale(0.649784,1.538974)"
       y2="324.03815"
       x2="377.48541"
       y1="419.78485"
       x1="375.17325"
       gradientUnits="userSpaceOnUse"
       id="linearGradient1415"
       xlink:href="#linearGradient153" />
    <linearGradient
       gradientTransform="matrix(1.3994837,0,0,2.0503713,170.042,-589.97044)"
       y2="614.50439"
       x2="321.32224"
       y1="498.17776"
       x1="320.75104"
       gradientUnits="userSpaceOnUse"
       id="linearGradient1417"
       xlink:href="#linearGradient138" />
    <linearGradient
       gradientTransform="scale(1.077001,0.928504)"
       y2="488.48251"
       x2="323.2514"
       y1="435.26761"
       x1="322.48257"
       gradientUnits="userSpaceOnUse"
       id="linearGradient1419"
       xlink:href="#linearGradient167" />
    <linearGradient
       gradientTransform="scale(0.571707,1.749147)"
       y2="331.44858"
       x2="411.2215"
       y1="242.94365"
       x1="411.2215"
       gradientUnits="userSpaceOnUse"
       id="linearGradient1421"
       xlink:href="#linearGradient167" />
    <linearGradient
       gradientTransform="scale(0.572667,1.746214)"
       y2="314.83911"
       x2="867.33453"
       y1="234.73897"
       x1="867.34546"
       gradientUnits="userSpaceOnUse"
       id="linearGradient1423"
       xlink:href="#linearGradient167" />
    <linearGradient
       gradientTransform="scale(1.011514,0.988617)"
       y2="737.41229"
       x2="212.5099"
       y1="657.11133"
       x1="236.25362"
       gradientUnits="userSpaceOnUse"
       id="linearGradient1425"
       xlink:href="#linearGradient162" />
    <linearGradient
       gradientTransform="scale(1.065499,0.938527)"
       y2="386.66583"
       x2="279.64313"
       y1="655.73102"
       x1="381.56607"
       gradientUnits="userSpaceOnUse"
       id="linearGradient1427"
       xlink:href="#linearGradient153" />
    <linearGradient
       gradientTransform="scale(1.009851,0.990245)"
       y2="737.8537"
       x2="203.12654"
       y1="630.30475"
       x1="218.11714"
       gradientUnits="userSpaceOnUse"
       id="linearGradient1429"
       xlink:href="#linearGradient162" />
    <linearGradient
       y2="704.73077"
       x2="182.24524"
       y1="587.23602"
       x1="117.88966"
       gradientTransform="scale(1.007724,0.992335)"
       gradientUnits="userSpaceOnUse"
       id="linearGradient1431"
       xlink:href="#linearGradient167" />
    <linearGradient
       gradientTransform="scale(0.999504,1.000496)"
       y2="710.97723"
       x2="230.53499"
       y1="570.41809"
       x1="223.10072"
       gradientUnits="userSpaceOnUse"
       id="linearGradient1433"
       xlink:href="#linearGradient167" />
    <linearGradient
       gradientTransform="scale(1.065499,0.938527)"
       y2="582.63507"
       x2="371.60889"
       y1="474.01779"
       x1="316.93988"
       gradientUnits="userSpaceOnUse"
       id="linearGradient1435"
       xlink:href="#linearGradient167" />
    <linearGradient
       gradientTransform="scale(1.218684,0.820557)"
       y2="485.69934"
       x2="285.45923"
       y1="410.46326"
       x1="284.68652"
       gradientUnits="userSpaceOnUse"
       id="linearGradient1437"
       xlink:href="#linearGradient162" />
    <linearGradient
       gradientTransform="scale(1.221941,0.81837)"
       y2="482.55939"
       x2="288.37628"
       y1="398.85422"
       x1="288.82358"
       gradientUnits="userSpaceOnUse"
       id="linearGradient1439"
       xlink:href="#linearGradient167" />
  </defs>
  <sodipodi:namedview
     id="base"
     pagecolor="#ffffff"
     bordercolor="#666666"
     borderopacity="1.0"
     inkscape:pageopacity="0.0"
     inkscape:pageshadow="2"
     inkscape:zoom="8"
     inkscape:cx="26.229482"
     inkscape:cy="40.006663"
     inkscape:document-units="mm"
     inkscape:current-layer="g1369"
     showgrid="false"
     showguides="false"
     inkscape:window-width="1920"
     inkscape:window-height="1012"
     inkscape:window-x="0"
     inkscape:window-y="42"
     inkscape:window-maximized="1"
     fit-margin-top="0"
     fit-margin-left="0"
     fit-margin-right="0"
     fit-margin-bottom="0"
     units="px" />
  <metadata
     id="metadata5">
    <rdf:RDF>
      <cc:Work
         rdf:about="">
        <dc:format>image/svg+xml</dc:format>
        <dc:type
           rdf:resource="http://purl.org/dc/dcmitype/StillImage" />
        <dc:title></dc:title>
      </cc:Work>
    </rdf:RDF>
  </metadata>
  <g
     inkscape:label="Ebene 1"
     inkscape:groupmode="layer"
     id="layer1"
     transform="translate(-18.716621,-210.0983)">
    <g
       transform="matrix(0.26458333,0,0,0.26458333,-77.211712,29.590588)"
       id="g1369">
      <circle
         style="fill:#796d03;fill-opacity:1;stroke:none;stroke-width:1.19465601;stroke-linecap:square;stroke-linejoin:round;stroke-miterlimit:4;stroke-dasharray:none;stroke-opacity:1;paint-order:markers stroke fill"
         id="path4767-3"
         cx="395.86209"
         cy="715.33136"
         r="30.402485" />
      <circle
         style="fill:#b6a505;fill-opacity:1;stroke:none;stroke-width:1.19465601;stroke-linecap:square;stroke-linejoin:round;stroke-miterlimit:4;stroke-dasharray:none;stroke-opacity:1;paint-order:markers stroke fill"
         id="path4767"
         cx="393.59125"
         cy="713.33069"
         r="30.402485" />
      <g
         id="g4713"
         transform="matrix(0.06633962,0,0,0.06633962,351.96897,682.90107)">
        <g
           id="g4785">
          <path
             style="fill:#333333;fill-opacity:1;stroke:none;stroke-width:1.25"
             d="m 223.627,632.24 c -22.388,-32.223 -26.754,-136.984 25.487,-201.43 25.886,-30.918 32.49,-52.465 34.531,-81.393 1.389,-32.979 -23.325,-131.442 69.883,-138.944 94.406,-7.532 89.336,85.66 88.793,134.975 -0.451,41.64 30.574,65.241 51.796,97.695 39.279,59.63 35.957,162.3 -7.399,217.872 -54.917,69.568 -101.953,39.398 -133.19,41.93 -58.493,3.202 -60.427,34.391 -129.901,-70.705 z"
             id="path106"
             transform="matrix(1.25,0,0,1.25,185.454,-167.505)"
             inkscape:connector-curvature="0" />
          <path
             style="fill:#dddddd;fill-opacity:1;stroke:none;stroke-width:0.99464899"
             d="m 246.571,470.864 c -12.239,12.496 -44.396,69.092 4.869,105.36 17.369,12.633 -16.377,59.495 -32.005,36.308 -27.57,-41.618 -8.831,-106.941 8.315,-130.188 11.652,-16.487 29.23,-22.676 18.821,-11.48 z"
             id="path113"
             transform="matrix(-1.67739,-0.0224516,-0.0211236,1.4709,1173.58,-293.017)"
             inkscape:connector-curvature="0" />
          <path
             style="fill:#333333;fill-opacity:1;stroke:none;stroke-width:0.97729802"
             d="m 256.513,459.837 c -19.915,17.717 -56.176,80.091 -3.288,120.606 17.37,12.632 -15.393,52.463 -33.79,32.089 -63.963,-70.82 1.669,-152.254 24.262,-180.25 20.192,-24.347 38.078,5.752 12.816,27.555 z"
             id="path111"
             transform="matrix(-1.67755,0,0,1.52374,1174.62,-318.082)"
             inkscape:connector-curvature="0" />
          <path
             style="fill:#ffffff;fill-opacity:1;stroke:none;stroke-width:1.17873001"
             id="path115"
             d="m 328.86324,320.64151 a 18.08748,27.131196 0 1 1 -36.17496,0 18.08748,27.131196 0 1 1 36.17496,0 z"
             transform="matrix(1.30445,-0.0755326,0.0771251,1.34257,144.757,-177.617)"
             inkscape:connector-curvature="0" />
          <path
             style="fill:#ffffff;fill-opacity:1;stroke:none;stroke-width:0.93138498"
             id="path116"
             d="m 328.86324,320.64151 a 18.08748,27.131196 0 1 1 -36.17496,0 18.08748,27.131196 0 1 1 36.17496,0 z"
             transform="matrix(-1.81082,0.0495107,0.0317324,1.55333,1207.46,-284.777)"
             inkscape:connector-curvature="0" />
          <path
             style="fill:#333333;fill-opacity:1;stroke:none;stroke-width:1.86495996"
             id="path117"
             d="m 328.86324,320.64151 a 18.08748,27.131196 0 1 1 -36.17496,0 18.08748,27.131196 0 1 1 36.17496,0 z"
             transform="matrix(-0.823196,-0.00176123,-0.0182321,0.852662,913.674,-37.9902)"
             inkscape:connector-curvature="0" />
          <path
             style="fill:#333333;fill-opacity:1;stroke:none;stroke-width:2.39814997"
             id="path118"
             d="m 328.86324,320.64151 a 18.08748,27.131196 0 1 1 -36.17496,0 18.08748,27.131196 0 1 1 36.17496,0 z"
             transform="matrix(0.59438,-0.0722959,0.0688176,0.705838,367.448,32.4186)"
             inkscape:connector-curvature="0" />
          <path
             style="fill:#dddddd;fill-opacity:1;stroke:none;stroke-width:1.25"
             d="m 258.702,495.425 c 12.836,-29.103 40.114,-80.226 40.695,-119.758 0,-31.442 94.179,-38.951 101.737,-7.558 7.558,31.393 26.741,78.483 38.95,101.156 12.208,22.672 47.809,94.695 9.884,157.546 -34.157,55.644 -137.725,99.666 -193.01,-7.557 -18.603,-37.207 -15.285,-83.315 1.744,-123.829 z"
             id="path128"
             transform="matrix(1.25,0,0,1.25,185.454,-168.23)"
             inkscape:connector-curvature="0" />
          <path
             style="font-size:12px;fill:#bbbbbb;fill-opacity:1;stroke:none;stroke-width:2.47103906;stroke-dasharray:none"
             d="m 765.99106,525.47016 c 37.32036,62.93677 -51.73804,168.2196 -140.56515,167.36627 -91.6056,1.02716 -140.99492,-98.10518 -113.56143,-165.9377 31.25274,-77.27605 46.06736,-112.95667 115.63559,-116.83912 79.81202,-4.45413 98.49099,47.95487 138.49099,115.41055 z"
             id="path125"
             inkscape:connector-curvature="0"
             sodipodi:nodetypes="scsss" />
          <path
             style="fill:#333333;fill-opacity:1;stroke:none;stroke-width:1.25"
             d="m 256.513,449.72 c -17.465,28.508 -59.377,95.813 -3.288,130.723 75.569,46.355 54.173,92.711 -14.799,50.974 -97.109,-58.264 -11.825,-175.616 27.131,-220.338 44.444,-50.2 8.554,9.087 -9.044,38.641 z"
             id="path109"
             transform="matrix(1.25,0,0,1.25,185.454,-167.505)"
             inkscape:connector-curvature="0" />
          <path
             style="fill:#ffd81b;fill-opacity:1;stroke:none;stroke-width:6.25"
             d="m 220.915,716.921 c -40.442,-21.416 -99.252,4.124 -77.902,-54.066 4.276,-13.238 -6.375,-33.008 0.581,-45.926 8.139,-15.698 25.58,-12.209 36.045,-22.674 10.318,-10.891 16.859,-29.649 36.044,-26.742 19.184,2.907 31.945,26.461 45.344,55.229 9.883,20.638 44.941,49.664 42.65,72.758 -2.696,35.5 -43.027,42.19 -82.762,21.421 z"
             id="path132"
             transform="matrix(1.25,0,0,1.25,185.454,-167.505)"
             inkscape:connector-curvature="0" />
          <path
             transform="matrix(0.598206,0.268584,-0.239623,0.617213,700.568,140.464)"
             style="font-size:12px;fill:#dddddd;fill-opacity:1;stroke:none;stroke-width:2.85509992;stroke-dasharray:none"
             d="m 415.072,495.764 c -3.007,24.906 -35.813,76.627 -69.518,81.534 -34.26,5.336 -11.80814,-76.85306 -60.35688,-110.02532 -15.65496,17.43098 8.79688,-18.68868 58.14788,-17.71568 53.301,1.654 74.121,13.891 71.727,46.207 z"
             id="path177"
             inkscape:connector-curvature="0"
             sodipodi:nodetypes="ccccc" />
          <path
             style="fill:#fae200;fill-opacity:1;stroke:none;stroke-width:6.25067997"
             d="m 220.274,718.402 c -41.327,-23.59 -99.894,5.605 -77.261,-55.547 4.736,-13.068 -6.596,-33.552 0.36,-46.47 8.139,-15.698 25.801,-11.665 36.266,-22.13 10.318,-10.891 18.827,-27.868 38.012,-24.961 19.184,2.907 29.977,24.68 43.376,53.448 9.883,20.638 43.415,48.971 41.124,72.065 -2.696,35.5 -42.724,45.471 -81.877,23.595 z"
             id="path133"
             transform="matrix(-1.1685,0.423145,0.475283,1.16478,728.343,-213.821)"
             inkscape:connector-curvature="0" />
          <path
             transform="matrix(0.515584,0.215259,-0.206526,0.49467,713.3,222.559)"
             style="font-size:12px;fill:#333333;fill-opacity:1;stroke:none;stroke-width:2.85509992"
             d="m 415.072,495.764 c -3.007,24.906 -35.813,76.627 -69.518,81.534 -34.26,5.336 -66.432,-34.06 -74.147,-71.114 -9.889,-41.206 22.587,-57.6 71.938,-56.627 53.301,1.654 74.121,13.891 71.727,46.207 z"
             id="path136"
             inkscape:connector-curvature="0" />
          <path
             style="fill:#fae200;fill-opacity:1;stroke:none;stroke-width:3.75"
             d="m 309.954,338.729 c 7.147,-6.77 24.811,-27.066 57.961,-5.755 6.162,4.01 11.162,4.377 23.021,9.455 23.726,9.749 12.382,33.259 -12.744,41.108 -10.758,3.489 -20.536,16.556 -40.129,15.439 -16.734,-0.977 -21.119,-11.874 -31.398,-17.906 -18.269,-10.311 -20.965,-24.254 -11.1,-31.653 9.866,-7.399 13.725,-10.059 14.389,-10.688 z"
             id="path119"
             transform="matrix(1.25,0,0,1.25,185.454,-167.505)"
             inkscape:connector-curvature="0" />
          <path
             style="fill:none;fill-opacity:1;stroke:#e49c2c;stroke-width:2.5;stroke-opacity:1"
             d="m 391.251,357.645 c -9.883,0.581 -31.393,22.091 -54.066,22.091 -22.673,0 -36.044,-20.929 -39.532,-20.929"
             id="path120"
             transform="matrix(1.25,0,0,1.25,185.454,-167.505)"
             inkscape:connector-curvature="0" />
        </g>
      </g>
      <g
         id="g4744"
         transform="matrix(0.10536203,0,0,0.10536203,317.8676,611.14683)">
        <g
           id="g4759"
           transform="matrix(0.62963499,0,0,0.62963499,323.5951,426.40472)">
          <path
             style="fill:#333333;fill-opacity:1;stroke:none;stroke-width:1px;stroke-linecap:butt;stroke-linejoin:miter;stroke-opacity:1"
             d="m 603.25237,946.48486 30.26786,-7.4108 -7.94643,-13.8392 -14.82143,-9.5536 z"
             id="path4726"
             inkscape:connector-curvature="0" />
          <path
             sodipodi:nodetypes="ccccc"
             style="fill:#fffd9d;fill-opacity:1;stroke:none;stroke-width:1px;stroke-linecap:butt;stroke-linejoin:miter;stroke-opacity:1"
             d="m 633.52023,939.07406 30.35714,-7.8571 -22.5,-22.5 c -10.76021,0.0136 -14.41161,7.13604 -15.80357,16.5179 z"
             id="path4728"
             inkscape:connector-curvature="0" />
          <path
             style="fill:#e6e08e;fill-opacity:1;stroke:none;stroke-width:1px;stroke-linecap:butt;stroke-linejoin:miter;stroke-opacity:1"
             d="m 610.75237,915.68126 7.23215,-30.35716 23.39285,23.39286 -15.80357,16.5179 z"
             id="path4730"
             inkscape:connector-curvature="0" />
          <path
             sodipodi:nodetypes="ccccc"
             style="fill:#fae200;fill-opacity:1;stroke:none;stroke-width:1px;stroke-linecap:butt;stroke-linejoin:miter;stroke-opacity:1"
             d="M 641.37737,908.71696 C 683.29406,851.57263 739.77166,801.70875 797.58272,752.5116 l 22.5893,22.58929 -156.29465,156.11607 z"
             id="path4732"
             inkscape:connector-curvature="0" />
          <path
             style="fill:#fa9300;fill-opacity:1;stroke:none;stroke-width:1px;stroke-linecap:butt;stroke-linejoin:miter;stroke-opacity:1"
             d="M 617.98452,885.32409 774.1106,729.19801 797.58272,752.51159 641.37737,908.71696 Z"
             id="path4734"
             inkscape:connector-curvature="0" />
          <path
             style="fill:#d86ac6;fill-opacity:1;stroke:none;stroke-width:1px;stroke-linecap:butt;stroke-linejoin:miter;stroke-opacity:1"
             d="m 779.2224,724.42927 45.40883,45.40883 16.83543,-16.83543 c 2.88239,-2.88239 3.10838,-7.96305 0,-11.07143 L 806.73452,707.1991 c -3.3189,-1.91617 -6.16067,-2.16509 -9.91072,0 z"
             id="path4736"
             inkscape:connector-curvature="0"
             sodipodi:nodetypes="ccccccc" />
        </g>
      </g>
    </g>
  </g>
</svg>
